<mxfile host="" modified="2020-07-09T23:46:15.542Z" agent="5.0 (X11; Linux x86_64) AppleWebKit/537.36 (KHTML, like Gecko) Code/1.46.1 Chrome/78.0.3904.130 Electron/7.3.1 Safari/537.36" etag="BD81NI4qYOq3sUHZ-y-b" version="13.1.3">
    <diagram id="oRjx9AXtk_63vZgVztj5" name="Page-1">
        <mxGraphModel dx="1348" dy="432" grid="1" gridSize="10" guides="1" tooltips="1" connect="1" arrows="1" fold="1" page="1" pageScale="1" pageWidth="850" pageHeight="1100" math="0" shadow="0">
            <root>
                <mxCell id="0"/>
                <mxCell id="1" parent="0"/>
                <mxCell id="1s9QtT6Oh5tXI5E5atgQ-1" value="User" style="swimlane;fontStyle=0;childLayout=stackLayout;horizontal=1;startSize=26;horizontalStack=0;resizeParent=1;resizeParentMax=0;resizeLast=0;collapsible=1;marginBottom=0;align=center;fontSize=14;" parent="1" vertex="1">
                    <mxGeometry x="80" y="40" width="160" height="130" as="geometry"/>
                </mxCell>
                <mxCell id="1s9QtT6Oh5tXI5E5atgQ-2" value="Username: Str" style="text;strokeColor=none;fillColor=none;spacingLeft=4;spacingRight=4;overflow=hidden;rotatable=0;points=[[0,0.5],[1,0.5]];portConstraint=eastwest;fontSize=12;" parent="1s9QtT6Oh5tXI5E5atgQ-1" vertex="1">
                    <mxGeometry y="26" width="160" height="26" as="geometry"/>
                </mxCell>
                <mxCell id="1s9QtT6Oh5tXI5E5atgQ-3" value="Password: Str" style="text;strokeColor=none;fillColor=none;spacingLeft=4;spacingRight=4;overflow=hidden;rotatable=0;points=[[0,0.5],[1,0.5]];portConstraint=eastwest;fontSize=12;" parent="1s9QtT6Oh5tXI5E5atgQ-1" vertex="1">
                    <mxGeometry y="52" width="160" height="26" as="geometry"/>
                </mxCell>
                <mxCell id="1s9QtT6Oh5tXI5E5atgQ-4" value="Email: Str" style="text;strokeColor=none;fillColor=none;spacingLeft=4;spacingRight=4;overflow=hidden;rotatable=0;points=[[0,0.5],[1,0.5]];portConstraint=eastwest;fontSize=12;" parent="1s9QtT6Oh5tXI5E5atgQ-1" vertex="1">
                    <mxGeometry y="78" width="160" height="26" as="geometry"/>
                </mxCell>
                <mxCell id="1s9QtT6Oh5tXI5E5atgQ-5" value="Characters: [ref: obj id]" style="text;strokeColor=none;fillColor=none;spacingLeft=4;spacingRight=4;overflow=hidden;rotatable=0;points=[[0,0.5],[1,0.5]];portConstraint=eastwest;fontSize=12;" parent="1s9QtT6Oh5tXI5E5atgQ-1" vertex="1">
                    <mxGeometry y="104" width="160" height="26" as="geometry"/>
                </mxCell>
                <mxCell id="1s9QtT6Oh5tXI5E5atgQ-31" value="" style="edgeStyle=entityRelationEdgeStyle;fontSize=12;html=1;endArrow=ERoneToMany;exitX=1;exitY=0.5;exitDx=0;exitDy=0;entryX=0;entryY=0.5;entryDx=0;entryDy=0;" parent="1" source="1s9QtT6Oh5tXI5E5atgQ-3" target="1s9QtT6Oh5tXI5E5atgQ-14" edge="1">
                    <mxGeometry width="100" height="100" relative="1" as="geometry">
                        <mxPoint x="350" y="400" as="sourcePoint"/>
                        <mxPoint x="369" y="57" as="targetPoint"/>
                    </mxGeometry>
                </mxCell>
                <mxCell id="1s9QtT6Oh5tXI5E5atgQ-6" value="Character" style="swimlane;fontStyle=0;childLayout=stackLayout;horizontal=1;startSize=26;horizontalStack=0;resizeParent=1;resizeParentMax=0;resizeLast=0;collapsible=1;marginBottom=0;align=center;fontSize=14;" parent="1" vertex="1">
                    <mxGeometry x="310" y="40" width="250" height="442" as="geometry"/>
                </mxCell>
                <mxCell id="1s9QtT6Oh5tXI5E5atgQ-7" value="Name: Str" style="text;strokeColor=none;fillColor=none;spacingLeft=4;spacingRight=4;overflow=hidden;rotatable=0;points=[[0,0.5],[1,0.5]];portConstraint=eastwest;fontSize=12;" parent="1s9QtT6Oh5tXI5E5atgQ-6" vertex="1">
                    <mxGeometry y="26" width="250" height="26" as="geometry"/>
                </mxCell>
                <mxCell id="1s9QtT6Oh5tXI5E5atgQ-8" value="Class: Str" style="text;strokeColor=none;fillColor=none;spacingLeft=4;spacingRight=4;overflow=hidden;rotatable=0;points=[[0,0.5],[1,0.5]];portConstraint=eastwest;fontSize=12;" parent="1s9QtT6Oh5tXI5E5atgQ-6" vertex="1">
                    <mxGeometry y="52" width="250" height="26" as="geometry"/>
                </mxCell>
                <mxCell id="1s9QtT6Oh5tXI5E5atgQ-9" value="Level: Num" style="text;strokeColor=none;fillColor=none;spacingLeft=4;spacingRight=4;overflow=hidden;rotatable=0;points=[[0,0.5],[1,0.5]];portConstraint=eastwest;fontSize=12;" parent="1s9QtT6Oh5tXI5E5atgQ-6" vertex="1">
                    <mxGeometry y="78" width="250" height="26" as="geometry"/>
                </mxCell>
                <mxCell id="1s9QtT6Oh5tXI5E5atgQ-10" value="Alignment: Str" style="text;strokeColor=none;fillColor=none;spacingLeft=4;spacingRight=4;overflow=hidden;rotatable=0;points=[[0,0.5],[1,0.5]];portConstraint=eastwest;fontSize=12;" parent="1s9QtT6Oh5tXI5E5atgQ-6" vertex="1">
                    <mxGeometry y="104" width="250" height="26" as="geometry"/>
                </mxCell>
                <mxCell id="1s9QtT6Oh5tXI5E5atgQ-11" value="ArmorClass: Num" style="text;strokeColor=none;fillColor=none;spacingLeft=4;spacingRight=4;overflow=hidden;rotatable=0;points=[[0,0.5],[1,0.5]];portConstraint=eastwest;fontSize=12;" parent="1s9QtT6Oh5tXI5E5atgQ-6" vertex="1">
                    <mxGeometry y="130" width="250" height="26" as="geometry"/>
                </mxCell>
                <mxCell id="1s9QtT6Oh5tXI5E5atgQ-12" value="Health: Str" style="text;strokeColor=none;fillColor=none;spacingLeft=4;spacingRight=4;overflow=hidden;rotatable=0;points=[[0,0.5],[1,0.5]];portConstraint=eastwest;fontSize=12;" parent="1s9QtT6Oh5tXI5E5atgQ-6" vertex="1">
                    <mxGeometry y="156" width="250" height="26" as="geometry"/>
                </mxCell>
                <mxCell id="1s9QtT6Oh5tXI5E5atgQ-42" value="HitDie: Str" style="text;strokeColor=none;fillColor=none;spacingLeft=4;spacingRight=4;overflow=hidden;rotatable=0;points=[[0,0.5],[1,0.5]];portConstraint=eastwest;fontSize=12;" parent="1s9QtT6Oh5tXI5E5atgQ-6" vertex="1">
                    <mxGeometry y="182" width="250" height="26" as="geometry"/>
                </mxCell>
                <mxCell id="1s9QtT6Oh5tXI5E5atgQ-14" value="Proficiency: Str" style="text;strokeColor=none;fillColor=none;spacingLeft=4;spacingRight=4;overflow=hidden;rotatable=0;points=[[0,0.5],[1,0.5]];portConstraint=eastwest;fontSize=12;" parent="1s9QtT6Oh5tXI5E5atgQ-6" vertex="1">
                    <mxGeometry y="208" width="250" height="26" as="geometry"/>
                </mxCell>
                <mxCell id="1s9QtT6Oh5tXI5E5atgQ-15" value="Speed: Num" style="text;strokeColor=none;fillColor=none;spacingLeft=4;spacingRight=4;overflow=hidden;rotatable=0;points=[[0,0.5],[1,0.5]];portConstraint=eastwest;fontSize=12;" parent="1s9QtT6Oh5tXI5E5atgQ-6" vertex="1">
                    <mxGeometry y="234" width="250" height="26" as="geometry"/>
                </mxCell>
                <mxCell id="1s9QtT6Oh5tXI5E5atgQ-16" value="Initiative: Str" style="text;strokeColor=none;fillColor=none;spacingLeft=4;spacingRight=4;overflow=hidden;rotatable=0;points=[[0,0.5],[1,0.5]];portConstraint=eastwest;fontSize=12;" parent="1s9QtT6Oh5tXI5E5atgQ-6" vertex="1">
                    <mxGeometry y="260" width="250" height="26" as="geometry"/>
                </mxCell>
                <mxCell id="1s9QtT6Oh5tXI5E5atgQ-17" value="Ability Scores: {[name: Num]}" style="text;strokeColor=none;fillColor=none;spacingLeft=4;spacingRight=4;overflow=hidden;rotatable=0;points=[[0,0.5],[1,0.5]];portConstraint=eastwest;fontSize=12;" parent="1s9QtT6Oh5tXI5E5atgQ-6" vertex="1">
                    <mxGeometry y="286" width="250" height="26" as="geometry"/>
                </mxCell>
                <mxCell id="1s9QtT6Oh5tXI5E5atgQ-18" value="Money: [{copper, silver, electrum, gold, platiunum}]" style="text;strokeColor=none;fillColor=none;spacingLeft=4;spacingRight=4;overflow=hidden;rotatable=0;points=[[0,0.5],[1,0.5]];portConstraint=eastwest;fontSize=12;" parent="1s9QtT6Oh5tXI5E5atgQ-6" vertex="1">
                    <mxGeometry y="312" width="250" height="26" as="geometry"/>
                </mxCell>
                <mxCell id="1s9QtT6Oh5tXI5E5atgQ-21" value="Items: [ref: obj id]" style="text;strokeColor=none;fillColor=none;spacingLeft=4;spacingRight=4;overflow=hidden;rotatable=0;points=[[0,0.5],[1,0.5]];portConstraint=eastwest;fontSize=12;" parent="1s9QtT6Oh5tXI5E5atgQ-6" vertex="1">
                    <mxGeometry y="338" width="250" height="26" as="geometry"/>
                </mxCell>
                <mxCell id="1s9QtT6Oh5tXI5E5atgQ-20" value="Languages: Str" style="text;strokeColor=none;fillColor=none;spacingLeft=4;spacingRight=4;overflow=hidden;rotatable=0;points=[[0,0.5],[1,0.5]];portConstraint=eastwest;fontSize=12;" parent="1s9QtT6Oh5tXI5E5atgQ-6" vertex="1">
                    <mxGeometry y="364" width="250" height="26" as="geometry"/>
                </mxCell>
                <mxCell id="1s9QtT6Oh5tXI5E5atgQ-22" value="Abilities: Str" style="text;strokeColor=none;fillColor=none;spacingLeft=4;spacingRight=4;overflow=hidden;rotatable=0;points=[[0,0.5],[1,0.5]];portConstraint=eastwest;fontSize=12;" parent="1s9QtT6Oh5tXI5E5atgQ-6" vertex="1">
                    <mxGeometry y="390" width="250" height="26" as="geometry"/>
                </mxCell>
                <mxCell id="1s9QtT6Oh5tXI5E5atgQ-30" value="Traits: Str" style="text;strokeColor=none;fillColor=none;spacingLeft=4;spacingRight=4;overflow=hidden;rotatable=0;points=[[0,0.5],[1,0.5]];portConstraint=eastwest;fontSize=12;" parent="1s9QtT6Oh5tXI5E5atgQ-6" vertex="1">
                    <mxGeometry y="416" width="250" height="26" as="geometry"/>
                </mxCell>
                <mxCell id="1s9QtT6Oh5tXI5E5atgQ-40" value="" style="edgeStyle=entityRelationEdgeStyle;fontSize=12;html=1;endArrow=ERoneToMany;entryX=0;entryY=0.25;entryDx=0;entryDy=0;" parent="1" target="1s9QtT6Oh5tXI5E5atgQ-32" edge="1">
                    <mxGeometry width="100" height="100" relative="1" as="geometry">
                        <mxPoint x="610" y="240" as="sourcePoint"/>
                        <mxPoint x="620" y="210" as="targetPoint"/>
                    </mxGeometry>
                </mxCell>
                <mxCell id="1s9QtT6Oh5tXI5E5atgQ-41" value="" style="edgeStyle=entityRelationEdgeStyle;fontSize=12;html=1;endArrow=ERoneToMany;entryX=0;entryY=0.25;entryDx=0;entryDy=0;" parent="1" source="1s9QtT6Oh5tXI5E5atgQ-21" target="1s9QtT6Oh5tXI5E5atgQ-36" edge="1">
                    <mxGeometry width="100" height="100" relative="1" as="geometry">
                        <mxPoint x="620" y="390" as="sourcePoint"/>
                        <mxPoint x="720" y="290" as="targetPoint"/>
                    </mxGeometry>
                </mxCell>
                <mxCell id="1s9QtT6Oh5tXI5E5atgQ-32" value="Ability Score" style="swimlane;fontStyle=0;childLayout=stackLayout;horizontal=1;startSize=26;horizontalStack=0;resizeParent=1;resizeParentMax=0;resizeLast=0;collapsible=1;marginBottom=0;align=center;fontSize=14;" parent="1" vertex="1" collapsed="1">
                    <mxGeometry x="640" y="160" width="110" height="26" as="geometry">
                        <mxRectangle x="640" y="160" width="160" height="78" as="alternateBounds"/>
                    </mxGeometry>
                </mxCell>
                <mxCell id="1s9QtT6Oh5tXI5E5atgQ-33" value="Name: Str" style="text;strokeColor=none;fillColor=none;spacingLeft=4;spacingRight=4;overflow=hidden;rotatable=0;points=[[0,0.5],[1,0.5]];portConstraint=eastwest;fontSize=12;" parent="1s9QtT6Oh5tXI5E5atgQ-32" vertex="1">
                    <mxGeometry y="26" width="110" height="26" as="geometry"/>
                </mxCell>
                <mxCell id="1s9QtT6Oh5tXI5E5atgQ-34" value="Value: Num" style="text;strokeColor=none;fillColor=none;spacingLeft=4;spacingRight=4;overflow=hidden;rotatable=0;points=[[0,0.5],[1,0.5]];portConstraint=eastwest;fontSize=12;" parent="1s9QtT6Oh5tXI5E5atgQ-32" vertex="1">
                    <mxGeometry y="52" width="110" height="26" as="geometry"/>
                </mxCell>
                <mxCell id="1s9QtT6Oh5tXI5E5atgQ-36" value="Items" style="swimlane;fontStyle=0;childLayout=stackLayout;horizontal=1;startSize=26;horizontalStack=0;resizeParent=1;resizeParentMax=0;resizeLast=0;collapsible=1;marginBottom=0;align=center;fontSize=14;" parent="1" vertex="1">
                    <mxGeometry x="640" y="280" width="160" height="78" as="geometry"/>
                </mxCell>
                <mxCell id="1s9QtT6Oh5tXI5E5atgQ-37" value="Type: Str" style="text;strokeColor=none;fillColor=none;spacingLeft=4;spacingRight=4;overflow=hidden;rotatable=0;points=[[0,0.5],[1,0.5]];portConstraint=eastwest;fontSize=12;" parent="1s9QtT6Oh5tXI5E5atgQ-36" vertex="1">
                    <mxGeometry y="26" width="160" height="26" as="geometry"/>
                </mxCell>
                <mxCell id="1s9QtT6Oh5tXI5E5atgQ-38" value="Weight: Num" style="text;strokeColor=none;fillColor=none;spacingLeft=4;spacingRight=4;overflow=hidden;rotatable=0;points=[[0,0.5],[1,0.5]];portConstraint=eastwest;fontSize=12;" parent="1s9QtT6Oh5tXI5E5atgQ-36" vertex="1">
                    <mxGeometry y="52" width="160" height="26" as="geometry"/>
                </mxCell>
            </root>
        </mxGraphModel>
    </diagram>
</mxfile>